<?xml version="1.0" encoding="utf-8"?>
<!-- Generator: Adobe Illustrator 14.0.0, SVG Export Plug-In . SVG Version: 6.00 Build 43363)  -->
<!DOCTYPE svg PUBLIC "-//W3C//DTD SVG 1.1//EN" "http://www.w3.org/Graphics/SVG/1.1/DTD/svg11.dtd">
<svg version="1.1" id="Layer_1" xmlns="http://www.w3.org/2000/svg" xmlns:xlink="http://www.w3.org/1999/xlink" x="0px" y="0px"
	 width="291.724px" height="84.02px" viewBox="0 0 291.724 84.02" enable-background="new 0 0 291.724 84.02" xml:space="preserve">
<g id="Optima_Demi_Font" display="none">
	<g display="inline">
		<path d="M0.003,51.432l-0.025-41.165C-0.022,10.267,14.393,0,34.78,0c20.386,0,34.924,10.283,34.924,10.283l-0.033,41.147
			C69.875,73.598,34.78,84.02,34.78,84.02S-0.202,73.598,0.003,51.432 M7.287,15.396l-0.031,34.05
			c-0.196,18.336,27.54,27.011,27.54,27.011s27.867-8.576,27.746-26.912l0.081-34.042c0,0-11.524-8.527-27.695-8.551
			c-0.032,0-0.062,0-0.094,0C18.704,6.952,7.287,15.396,7.287,15.396"/>
		<path fill="#ED1C2E" d="M7.256,49.446l0.031-34.05c0,0,11.46-8.478,27.64-8.444c16.171,0.023,27.695,8.551,27.695,8.551
			l-0.081,34.042c0.122,18.336-27.746,26.912-27.746,26.912S7.06,67.781,7.256,49.446"/>
		<path fill="#FFFFFF" d="M34.03,56.291c-12.609,0-21.053-7.36-21.053-20.371c0-12.836,10.042-20.54,22.48-20.54
			c12.667,0,21.113,8.157,21.113,20.313c0,9.3-5.708,16.719-14.495,19.571c4.679,2.968,5.715,3.246,11.02,6.155
			c-2.795,0.57-5.42,1.598-7.988,3.14c-2.853-2.227-5.705-4.45-8.672-6.503L34.03,56.291L34.03,56.291z M22.447,37.575
			c0,7.417,3.368,15.292,11.926,15.292c7.931,0,12.725-7.532,12.725-18.26c0-7.36-3.424-15.806-11.983-15.806
			C25.644,18.747,22.447,26.962,22.447,37.575L22.447,37.575z"/>
		<path d="M110.14,56.665c-12.61,0-21.053-7.36-21.053-20.371c0-12.836,10.042-20.539,22.48-20.539
			c12.667,0,21.112,8.157,21.112,20.313c0,9.3-5.707,16.719-14.493,19.571c4.679,2.968,5.713,3.246,11.02,6.155
			c-2.795,0.57-5.42,1.598-7.987,3.14c-2.854-2.227-5.706-4.45-8.672-6.503L110.14,56.665L110.14,56.665z M98.557,37.948
			c0,7.418,3.368,15.293,11.926,15.293c7.93,0,12.725-7.532,12.725-18.26c0-7.359-3.425-15.805-11.983-15.805
			C101.754,19.121,98.557,27.337,98.557,37.948L98.557,37.948z"/>
		<path d="M139.742,23.375c1.184,0.097,2.367,0.238,3.554,0.238c1.183,0,2.367-0.143,3.55-0.238v13.456
			c0,2.604-0.095,6.488,0.332,8.952c0.426,2.32,0.806,3.789,2.511,5.448c1.518,1.421,3.316,2.036,5.4,2.036
			c4.407,0,6.774-1.609,8.432-5.731c0.853-2.083,0.853-7.484,0.853-9.808V23.374c0.617,0.098,1.28,0.145,1.895,0.145
			c0.617,0,1.28-0.047,1.895-0.145v16.869c-0.142,5.396-0.092,10.323-5.02,13.736c-2.559,1.849-5.828,2.51-8.953,2.51
			c-5.734,0-11.941-1.798-13.693-7.959c-0.521-1.848-0.757-3.932-0.757-5.825L139.742,23.375L139.742,23.375z"/>
		<path d="M179.497,45.974c-1.232,3.6-1.606,6.538-2.504,9.807c-0.76-0.047-1.469-0.144-2.228-0.144
			c-0.757,0-1.515,0.097-2.274,0.144l12.739-32.829c0.615,0.094,1.184,0.143,1.801,0.143c0.615,0,1.184-0.049,1.799-0.143
			l13.217,32.925c-1.371-0.097-2.701-0.238-4.075-0.238c-1.373,0-2.699,0.143-4.072,0.238c-1.09-3.507-2.087-6.728-3.364-9.902
			H179.497L179.497,45.974z M189.445,43.083l-4.215-11.038l-4.453,11.039L189.445,43.083L189.445,43.083z"/>
		<path d="M215.454,52.227c4.123,0,7.627-0.331,10.847-0.664c-0.094,0.664-0.236,1.377-0.236,2.038c0,0.663,0.142,1.374,0.236,2.036
			h-17.954l0.002-32.263c1.181,0.098,2.367,0.239,3.551,0.239s2.37-0.143,3.554-0.239V52.227L215.454,52.227z"/>
		<path d="M238.926,42.184c-3.554-6.112-6.681-12.507-10.188-18.81c1.422,0.098,2.845,0.239,4.266,0.239
			c1.42,0,2.843-0.143,4.263-0.239c1.279,2.607,2.699,5.64,4.026,8.433c1.279,2.654,2.416,4.977,2.984,5.687
			c1.801-2.225,5.307-10.09,7.109-14.118c0.756,0.098,1.514,0.145,2.32,0.145c0.754,0,1.514-0.047,2.271-0.145
			c-3.41,6.065-6.961,11.799-9.949,17.861v14.64c-1.182-0.097-2.367-0.238-3.553-0.238c-1.183,0-2.367,0.143-3.55,0.238
			L238.926,42.184L238.926,42.184z"/>
		<path d="M277.166,29.55c-0.949-2.51-2.748-4.119-5.449-4.119c-3.739,0-5.209,1.94-5.209,4.64c0,6.397,14.398,5.213,14.398,16.063
			c0,6.063-5.209,10.422-12.553,10.422c-2.605,0-5.4-0.615-7.629-2.036c0.572-1.991,1.092-3.981,1.377-6.017h0.896
			c0.715,3.269,3.271,5.213,6.542,5.213c2.936,0,5.543-1.661,5.543-4.929c0-7.581-14.118-4.832-14.118-16.25
			c0-5.449,3.745-9.947,10.943-9.947c3.412,0,6.441,1.277,7.482,2.272c-0.566,1.516-1.041,3.079-1.517,4.688H277.166L277.166,29.55z
			"/>
		<g>
			<path d="M287.949,21.416c2.119,0,3.775,1.678,3.775,3.771c0,2.118-1.678,3.774-3.754,3.774c-2.096,0-3.773-1.656-3.773-3.774
				C284.197,23.047,285.896,21.416,287.949,21.416z M287.949,22.087c-1.719,0-3.037,1.359-3.037,3.101
				c0,1.761,1.299,3.104,3.037,3.104c1.764,0,3.064-1.32,3.064-3.104C291.014,23.49,289.753,22.087,287.949,22.087z M290.007,27.221
				c-0.147-0.021-0.272-0.04-0.44-0.04c-0.149,0-0.297,0.02-0.524,0.04c-0.713-1.026-1.279-1.614-1.679-2.073h-0.146
				c0,0.65,0,1.152,0.063,2.073c-0.188-0.021-0.271-0.04-0.482-0.04s-0.271,0.02-0.397,0.04c0.043-0.459,0.063-0.985,0.063-2.201
				c0-1.068-0.021-1.594-0.043-2.054c0.315,0.021,0.549,0.021,1.028,0.021c1.052,0,2.14-0.021,2.14,1.007
				c0,0.881-0.967,1.026-1.383,1.069c0.271,0.377,1.551,1.825,1.821,2.099L290.007,27.221z M287.238,23.277
				c-0.021,0.569-0.021,1.072-0.021,1.575c0.464,0,1.554,0,1.554-0.816C288.77,23.277,287.93,23.277,287.238,23.277z"/>
		</g>
	</g>
	<text transform="matrix(1 0 0 1 303.0151 55.8743)" display="inline" fill="#ED1C2E" font-family="'ArialMT'" font-size="55.7842">ssl</text>
	<text transform="matrix(1 0 0 1 384.3472 55.8743)" display="inline" font-family="'ArialMT'" font-size="55.7842"> </text>
	<text transform="matrix(1 0 0 1 396.1724 55.8743)" display="inline" font-family="'ArialMT'" font-size="55.7842">l</text>
	<text transform="matrix(1 0 0 1 421.7769 55.8743)" display="inline" font-family="'ArialMT'" font-size="55.7842">a</text>
	<text transform="matrix(1 0 0 1 455.8608 55.8743)" display="inline" font-family="'ArialMT'" font-size="55.7842">bs</text>
</g>
<g id="Outlined">
	<g>
		<g>
			<path d="M0.003,51.432l-0.025-41.165C-0.022,10.267,14.393,0,34.78,0c20.386,0,34.924,10.283,34.924,10.283l-0.033,41.147
				C69.875,73.598,34.78,84.02,34.78,84.02S-0.202,73.598,0.003,51.432 M7.287,15.396l-0.031,34.05
				c-0.196,18.336,27.54,27.011,27.54,27.011s27.867-8.576,27.746-26.912l0.081-34.042c0,0-11.524-8.527-27.695-8.551
				c-0.032,0-0.062,0-0.094,0C18.704,6.952,7.287,15.396,7.287,15.396"/>
			<path fill="#ED1C2E" d="M7.256,49.446l0.031-34.05c0,0,11.46-8.478,27.64-8.444c16.171,0.023,27.695,8.551,27.695,8.551
				l-0.081,34.042c0.122,18.336-27.746,26.912-27.746,26.912S7.06,67.781,7.256,49.446"/>
			<path fill="#FFFFFF" d="M34.03,56.291c-12.609,0-21.053-7.36-21.053-20.371c0-12.836,10.042-20.54,22.48-20.54
				c12.667,0,21.113,8.157,21.113,20.313c0,9.3-5.708,16.719-14.495,19.571c4.679,2.968,5.715,3.246,11.02,6.155
				c-2.795,0.57-5.42,1.598-7.988,3.14c-2.853-2.227-5.705-4.45-8.672-6.503L34.03,56.291L34.03,56.291z M22.447,37.575
				c0,7.417,3.368,15.292,11.926,15.292c7.931,0,12.725-7.532,12.725-18.26c0-7.36-3.424-15.806-11.983-15.806
				C25.644,18.747,22.447,26.962,22.447,37.575L22.447,37.575z"/>
			<path d="M110.14,56.665c-12.61,0-21.053-7.36-21.053-20.371c0-12.836,10.042-20.539,22.48-20.539
				c12.667,0,21.112,8.157,21.112,20.313c0,9.3-5.707,16.719-14.493,19.571c4.679,2.968,5.713,3.246,11.02,6.155
				c-2.795,0.57-5.42,1.598-7.987,3.14c-2.854-2.227-5.706-4.45-8.672-6.503L110.14,56.665L110.14,56.665z M98.557,37.948
				c0,7.418,3.368,15.293,11.926,15.293c7.93,0,12.725-7.532,12.725-18.26c0-7.359-3.425-15.805-11.983-15.805
				C101.754,19.121,98.557,27.337,98.557,37.948L98.557,37.948z"/>
			<path d="M139.742,23.375c1.184,0.097,2.367,0.238,3.554,0.238c1.183,0,2.367-0.143,3.55-0.238v13.456
				c0,2.604-0.095,6.488,0.332,8.952c0.426,2.32,0.806,3.789,2.511,5.448c1.518,1.421,3.316,2.036,5.4,2.036
				c4.407,0,6.774-1.609,8.432-5.731c0.853-2.083,0.853-7.484,0.853-9.808V23.374c0.617,0.098,1.28,0.145,1.895,0.145
				c0.617,0,1.28-0.047,1.895-0.145v16.869c-0.142,5.396-0.092,10.323-5.02,13.736c-2.559,1.849-5.828,2.51-8.953,2.51
				c-5.734,0-11.941-1.798-13.693-7.959c-0.521-1.848-0.757-3.932-0.757-5.825L139.742,23.375L139.742,23.375z"/>
			<path d="M179.497,45.974c-1.232,3.6-1.606,6.538-2.504,9.807c-0.76-0.047-1.469-0.144-2.228-0.144
				c-0.757,0-1.515,0.097-2.274,0.144l12.739-32.829c0.615,0.094,1.184,0.143,1.801,0.143c0.615,0,1.184-0.049,1.799-0.143
				l13.217,32.925c-1.371-0.097-2.701-0.238-4.075-0.238c-1.373,0-2.699,0.143-4.072,0.238c-1.09-3.507-2.087-6.728-3.364-9.902
				H179.497L179.497,45.974z M189.445,43.083l-4.215-11.038l-4.453,11.039L189.445,43.083L189.445,43.083z"/>
			<path d="M215.454,52.227c4.123,0,7.627-0.331,10.847-0.664c-0.094,0.664-0.236,1.377-0.236,2.038
				c0,0.663,0.142,1.374,0.236,2.036h-17.954l0.002-32.263c1.181,0.098,2.367,0.239,3.551,0.239s2.37-0.143,3.554-0.239V52.227
				L215.454,52.227z"/>
			<path d="M238.926,42.184c-3.554-6.112-6.681-12.507-10.188-18.81c1.422,0.098,2.845,0.239,4.266,0.239
				c1.42,0,2.843-0.143,4.263-0.239c1.279,2.607,2.699,5.64,4.026,8.433c1.279,2.654,2.416,4.977,2.984,5.687
				c1.801-2.225,5.307-10.09,7.109-14.118c0.756,0.098,1.514,0.145,2.32,0.145c0.754,0,1.514-0.047,2.271-0.145
				c-3.41,6.065-6.961,11.799-9.949,17.861v14.64c-1.182-0.097-2.367-0.238-3.553-0.238c-1.183,0-2.367,0.143-3.55,0.238
				L238.926,42.184L238.926,42.184z"/>
			<path d="M277.166,29.55c-0.949-2.51-2.748-4.119-5.449-4.119c-3.739,0-5.209,1.94-5.209,4.64c0,6.397,14.398,5.213,14.398,16.063
				c0,6.063-5.209,10.422-12.553,10.422c-2.605,0-5.4-0.615-7.629-2.036c0.572-1.991,1.092-3.981,1.377-6.017h0.896
				c0.715,3.269,3.271,5.213,6.542,5.213c2.936,0,5.543-1.661,5.543-4.929c0-7.581-14.118-4.832-14.118-16.25
				c0-5.449,3.745-9.947,10.943-9.947c3.412,0,6.441,1.277,7.482,2.272c-0.566,1.516-1.041,3.079-1.517,4.688H277.166L277.166,29.55
				z"/>
			<g>
				<path d="M287.949,21.416c2.119,0,3.775,1.678,3.775,3.771c0,2.118-1.678,3.774-3.754,3.774c-2.096,0-3.773-1.656-3.773-3.774
					C284.197,23.047,285.896,21.416,287.949,21.416z M287.949,22.087c-1.719,0-3.037,1.359-3.037,3.101
					c0,1.761,1.299,3.104,3.037,3.104c1.764,0,3.064-1.32,3.064-3.104C291.014,23.49,289.753,22.087,287.949,22.087z
					 M290.007,27.221c-0.147-0.021-0.272-0.04-0.44-0.04c-0.149,0-0.297,0.02-0.524,0.04c-0.713-1.026-1.279-1.614-1.679-2.073
					h-0.146c0,0.65,0,1.152,0.063,2.073c-0.188-0.021-0.271-0.04-0.482-0.04s-0.271,0.02-0.397,0.04
					c0.043-0.459,0.063-0.985,0.063-2.201c0-1.068-0.021-1.594-0.043-2.054c0.315,0.021,0.549,0.021,1.028,0.021
					c1.052,0,2.14-0.021,2.14,1.007c0,0.881-0.967,1.026-1.383,1.069c0.271,0.377,1.551,1.825,1.821,2.099L290.007,27.221z
					 M287.238,23.277c-0.021,0.569-0.021,1.072-0.021,1.575c0.464,0,1.554,0,1.554-0.816
					C288.77,23.277,287.93,23.277,287.238,23.277z"/>
			</g>
		</g>
	</g>
</g>
</svg>
